<svg width="366" height="366" viewBox="0 0 366 366" fill="none" xmlns="http://www.w3.org/2000/svg">
<path d="M251.625 331.688C251.625 334.721 250.42 337.63 248.275 339.775C246.13 341.92 243.221 343.125 240.188 343.125H125.813C122.779 343.125 119.87 341.92 117.725 339.775C115.58 337.63 114.375 334.721 114.375 331.688C114.375 328.654 115.58 325.745 117.725 323.6C119.87 321.455 122.779 320.25 125.813 320.25H240.188C243.221 320.25 246.13 321.455 248.275 323.6C250.42 325.745 251.625 328.654 251.625 331.688ZM308.813 148.688C308.862 167.754 304.554 186.581 296.219 203.729C287.884 220.878 275.741 235.896 260.718 247.636C257.909 249.789 255.629 252.556 254.053 255.726C252.477 258.895 251.647 262.383 251.625 265.922V274.5C251.625 280.567 249.215 286.385 244.925 290.675C240.635 294.965 234.817 297.375 228.75 297.375H137.25C131.183 297.375 125.365 294.965 121.075 290.675C116.785 286.385 114.375 280.567 114.375 274.5V265.922C114.373 262.425 113.569 258.975 112.024 255.837C110.48 252.699 108.237 249.957 105.468 247.822C90.4821 236.151 78.3475 221.223 69.9829 204.17C61.6183 187.116 57.2427 168.383 57.1875 149.388C56.8158 81.2492 111.887 24.5049 179.969 22.875C196.744 22.4708 213.431 25.4263 229.047 31.5678C244.663 37.7092 258.892 46.9124 270.898 58.6357C282.904 70.3589 292.443 84.3654 298.954 99.8306C305.465 115.296 308.817 131.907 308.813 148.688ZM262.905 135.334C259.939 118.768 251.969 103.509 240.068 91.6101C228.167 79.7113 212.905 71.7445 196.339 68.7823C194.858 68.5326 193.342 68.5771 191.877 68.9133C190.413 69.2495 189.03 69.8707 187.806 70.7416C186.582 71.6125 185.541 72.716 184.744 73.989C183.946 75.262 183.407 76.6797 183.157 78.161C182.908 79.6424 182.952 81.1584 183.288 82.6225C183.624 84.0867 184.246 85.4703 185.117 86.6943C185.988 87.9183 187.091 88.9588 188.364 89.7564C189.637 90.554 191.055 91.093 192.536 91.3428C216.226 95.3316 236.327 115.433 240.345 139.166C240.797 141.83 242.178 144.247 244.243 145.99C246.308 147.733 248.923 148.689 251.625 148.688C252.271 148.684 252.917 148.631 253.555 148.53C256.545 148.02 259.209 146.343 260.963 143.868C262.716 141.394 263.415 138.324 262.905 135.334Z" fill="#FBE4EA"/>
</svg>
