<svg width="247" height="215" viewBox="0 0 247 215" fill="none" xmlns="http://www.w3.org/2000/svg">
<g clip-path="url(#clip0_525_1808)">
<path d="M172.071 211.802L168.34 211.801L166.565 197.409L172.072 197.409L172.071 211.802Z" fill="#FFB6B6"/>
<path d="M159.287 211.717C159.171 211.913 159.11 212.544 159.11 212.772C159.11 213.471 159.677 214.038 160.376 214.038H171.932C172.409 214.038 172.796 213.652 172.796 213.174V212.693C172.796 212.693 173.367 211.247 172.191 209.465C172.191 209.465 170.728 210.861 168.542 208.675L167.897 207.507L163.232 210.919L160.646 211.238C160.08 211.307 159.578 211.227 159.287 211.717Z" fill="#2F2E41"/>
<path d="M211.461 207.134L208.052 208.65L200.583 196.219L205.615 193.982L211.461 207.134Z" fill="#FFB6B6"/>
<path d="M199.745 212.25C199.719 212.476 199.919 213.078 200.012 213.286C200.296 213.925 201.044 214.213 201.683 213.929L212.243 209.234C212.679 209.041 212.875 208.53 212.681 208.094L212.486 207.654C212.486 207.654 212.421 206.101 210.621 204.95C210.621 204.95 209.851 206.82 206.966 205.711L205.903 204.905L203.026 209.919L200.792 211.26C200.303 211.554 199.812 211.684 199.745 212.25Z" fill="#2F2E41"/>
<path d="M163.962 121.743L160.644 128.71L166.284 201.034H173.337L176.237 153.592L201.55 201.034H210.202L197.138 167.194L188.18 123.07L163.962 121.743Z" fill="#2F2E41"/>
<path d="M181.726 77.0638H172.977L169.769 82.0981L162.532 85.5592L164.105 107.27L163.316 123.099L164.398 123.068C172.118 122.842 179.835 124.098 187 126.983C188.838 127.723 190.765 128.136 192.423 127.722C192.423 127.722 191.794 125.204 191.165 124.575C190.536 123.946 190.221 123.426 190.536 123.056C190.85 122.687 191.48 122.373 190.85 121.743C190.221 121.114 190.221 120.321 190.221 120.321L188.333 106.326L192.109 86.5031L184.243 82.0981L181.726 77.0638Z" fill="#DE2D59"/>
<path d="M196.758 104.511L196.52 123.078L191.9 139.63L188.207 138.252L189.846 123.081L189.631 102.55L196.758 104.511Z" fill="#FFB6B6"/>
<path d="M191.884 142.299C192.317 139.919 191.523 137.781 190.11 137.524C188.697 137.266 187.2 138.987 186.767 141.367C186.333 143.747 187.128 145.885 188.541 146.143C189.954 146.4 191.451 144.679 191.884 142.299Z" fill="#FFB6B6"/>
<path d="M190.221 85.5592C190.221 85.5592 195.433 86.3668 195.502 90.84C195.57 95.3131 200.604 102.55 197.458 108.214L189.277 109.472L184.872 93.4253L189.906 84.9299" fill="#DE2D59"/>
<path d="M166.428 101.241L156.04 116.632L143.095 127.934L140.763 124.756L150.459 112.972L161.545 95.6904L166.428 101.241Z" fill="#FFB6B6"/>
<path d="M141.617 130.157C143.285 128.405 143.795 126.182 142.754 125.191C141.714 124.201 139.519 124.818 137.85 126.57C136.182 128.322 135.673 130.545 136.713 131.535C137.753 132.526 139.949 131.909 141.617 130.157Z" fill="#FFB6B6"/>
<path d="M171.362 81.81C171.362 81.81 175.277 85.3456 172.879 89.1225C170.482 92.8994 170.719 101.712 164.981 104.72L157.451 101.283C158.085 95.0782 158.455 88.6449 162.574 85.4509L171.445 81.1113" fill="#DE2D59"/>
<path d="M175.994 75.7669C180.317 75.7669 183.822 72.2624 183.822 67.9393C183.822 63.6162 180.317 60.1117 175.994 60.1117C171.671 60.1117 168.167 63.6162 168.167 67.9393C168.167 72.2624 171.671 75.7669 175.994 75.7669Z" fill="#FFB6B6"/>
<path d="M181.743 74.3709C182.174 74.4444 182.68 73.3993 183.164 72.3814C184.177 70.2507 184.82 68.8962 184.869 66.9816C184.911 65.3497 184.458 65.778 184.017 62.1501C183.871 60.9535 181.827 60.9558 181.411 60.3876C180.708 59.4278 181.786 59.032 180.038 58.4555C176.763 57.3755 175.282 59.0531 173.202 59.1977C173.149 59.2013 172.118 60.2097 171.542 60.2619C170.533 60.3532 169.077 60.1961 168.425 58.6588C167.815 57.2215 167.411 61.4217 167.956 61.9415C168.419 62.3828 169.218 63.4906 169.238 63.5711C169.261 63.6623 167.339 61.533 167.018 62.4105C166.787 63.042 167.514 66.291 168.101 66.4132C168.592 66.5153 169.793 64.8967 169.522 65.5605C168.894 67.1 172.672 68.0823 177.196 64.9921C177.356 64.8825 177.205 65.0573 177.764 66.4132C178.47 68.1232 178.629 68.2158 178.617 68.6868C178.59 69.7063 177.825 70.0065 178.048 70.6762C178.23 71.2186 178.938 71.6385 179.469 71.5288C180.069 71.405 180.172 70.663 180.606 70.6762C180.978 70.6875 181.419 71.2477 181.459 71.813C181.542 73.0041 179.778 73.3316 179.469 74.9393C179.295 75.8466 181.347 74.3033 181.743 74.3709Z" fill="#2F2E41"/>
<path d="M119.777 214.395H52.5169C42.4288 214.395 34.2214 206.188 34.2214 196.099V18.2955C34.2214 8.20737 42.4288 0 52.5169 0H119.777C129.865 0 138.072 8.20737 138.072 18.2955C139.324 89.696 141.459 169.653 138.072 196.099C138.072 206.188 129.865 214.395 119.777 214.395Z" fill="#3F3D56"/>
<path d="M139.01 65.4021C138.583 65.4021 138.236 65.7492 138.236 66.1761V90.9437C138.236 91.3706 138.583 91.7177 139.01 91.7177C139.437 91.7177 139.784 91.3706 139.784 90.9437V66.1761C139.784 65.7492 139.437 65.4021 139.01 65.4021Z" fill="#3F3D56"/>
<path d="M136.331 18.2957V196.096C136.331 204.877 129.496 212.06 120.855 212.617H120.851C120.723 212.625 120.596 212.633 120.464 212.636C120.236 212.648 120.007 212.652 119.775 212.652C119.775 212.652 118.924 212.59 117.368 212.474C115.797 212.358 113.51 212.184 110.658 211.955C109.802 211.889 108.901 211.816 107.949 211.739C106.052 211.584 103.97 211.413 101.737 211.22C100.847 211.146 99.9262 211.065 98.9858 210.984C94.1793 210.57 88.7962 210.086 83.119 209.537C82.1593 209.448 81.1918 209.355 80.2166 209.258C79.9612 209.231 35.9631 198.171 35.9631 196.096V18.2957C35.9631 9.151 43.3741 1.74005 52.5188 1.74005H62.4026C63.9815 1.74005 65.2509 2.97069 65.3863 4.54576C65.3979 4.65026 65.4095 4.75473 65.4289 4.85922C65.7152 6.44204 67.1665 7.54497 68.7764 7.54497H103.517C105.127 7.54497 106.579 6.44204 106.865 4.85922C106.884 4.75473 106.896 4.65026 106.908 4.54576C107.043 2.97069 108.312 1.74005 109.891 1.74005H119.775C128.92 1.74005 136.331 9.151 136.331 18.2957Z" fill="white"/>
<path d="M33.8345 46.8264C33.4077 46.8264 33.0605 47.1735 33.0605 47.6003V53.7922C33.0605 54.2191 33.4077 54.5662 33.8345 54.5662C34.2614 54.5662 34.6085 54.2191 34.6085 53.7922V47.6003C34.6085 47.1735 34.2614 46.8264 33.8345 46.8264Z" fill="#3F3D56"/>
<path d="M33.8345 65.4021C33.4077 65.4021 33.0605 65.7492 33.0605 66.1761V78.1729C33.0605 78.5998 33.4077 78.9469 33.8345 78.9469C34.2614 78.9469 34.6085 78.5998 34.6085 78.1729V66.1761C34.6085 65.7492 34.2614 65.4021 33.8345 65.4021Z" fill="#3F3D56"/>
<path d="M33.8345 82.4298C33.4077 82.4298 33.0605 82.7769 33.0605 83.2038V95.2006C33.0605 95.6275 33.4077 95.9746 33.8345 95.9746C34.2614 95.9746 34.6085 95.6275 34.6085 95.2006V83.2038C34.6085 82.7769 34.2614 82.4298 33.8345 82.4298Z" fill="#3F3D56"/>
<path d="M62.1331 4.4505H47.3313C47.2509 4.4505 47.1858 4.51563 47.1858 4.59598V6.24C47.1858 6.32034 47.2509 6.38547 47.3313 6.38547H62.1331C62.2134 6.38547 62.2786 6.32034 62.2786 6.24V4.59598C62.2786 4.51563 62.2134 4.4505 62.1331 4.4505Z" fill="#E6E6E6"/>
<path d="M112.337 6.38544C113.192 6.38544 113.885 5.69239 113.885 4.83747C113.885 3.98254 113.192 3.28949 112.337 3.28949C111.482 3.28949 110.789 3.98254 110.789 4.83747C110.789 5.69239 111.482 6.38544 112.337 6.38544Z" fill="#E6E6E6"/>
<path d="M116.594 6.38544C117.449 6.38544 118.142 5.69239 118.142 4.83747C118.142 3.98254 117.449 3.28949 116.594 3.28949C115.739 3.28949 115.046 3.98254 115.046 4.83747C115.046 5.69239 115.739 6.38544 116.594 6.38544Z" fill="#E6E6E6"/>
<path d="M120.851 6.38544C121.706 6.38544 122.399 5.69239 122.399 4.83747C122.399 3.98254 121.706 3.28949 120.851 3.28949C119.996 3.28949 119.303 3.98254 119.303 4.83747C119.303 5.69239 119.996 6.38544 120.851 6.38544Z" fill="#E6E6E6"/>
<path d="M121.343 142.433C121.343 124.789 106.43 115.082 89.3948 110.485C67.5542 104.591 51.5585 116.518 57.4465 142.433C61.3557 159.639 81.1983 185.317 89.3948 169.692C98.7739 151.813 121.343 160.078 121.343 142.433Z" fill="#F2F2F2"/>
<path d="M0 214.442C0 214.751 0.24856 215 0.558084 215H245.488C245.798 215 246.047 214.751 246.047 214.442C246.047 214.132 245.798 213.884 245.488 213.884H0.558084C0.24856 213.884 0 214.132 0 214.442Z" fill="#CCCCCC"/>
<path d="M78.4144 139.284L74.5549 137.456C76.1379 139.665 77.5019 143.115 78.2322 145.86C79.4686 143.303 81.4617 140.174 83.4346 138.305L79.3556 139.354C81.8691 127.036 91.3229 118.192 102.149 118.192L102.302 117.747C90.9941 117.747 80.9807 126.468 78.4144 139.284Z" fill="#3F3D56"/>
<path d="M96.178 158.053H71.7923C70.758 158.053 69.9165 157.212 69.9165 156.177C69.9165 155.143 70.758 154.302 71.7923 154.302H96.178C97.2123 154.302 98.0538 155.143 98.0538 156.177C98.0538 157.212 97.2123 158.053 96.178 158.053Z" fill="#DE2D59"/>
<path d="M118.974 60.8353V110.544C118.974 114.94 115.397 118.517 111.002 118.517H61.2923C56.8963 118.517 53.3201 114.94 53.3201 110.544V60.8353C53.3201 56.4393 56.8963 52.863 61.2923 52.863H111.002C115.397 52.863 118.974 56.4393 118.974 60.8353ZM111.002 117.579C114.886 117.579 118.036 114.429 118.036 110.544V85.4831C118.036 67.9855 103.851 53.8009 86.3537 53.8009H61.2923C57.4074 53.8009 54.258 56.9503 54.258 60.8353V110.544C54.258 114.429 57.4074 117.579 61.2923 117.579H111.002Z" fill="#3F3D56"/>
<path d="M92.7641 73.1651H76.7162C76.3116 73.1651 75.9824 72.8359 75.9824 72.4313C75.9824 72.0267 76.3116 71.6977 76.7162 71.6977H92.7641C93.1687 71.6977 93.4977 72.0267 93.4977 72.4313C93.4977 72.8359 93.1687 73.1651 92.7641 73.1651Z" fill="#3F3D56"/>
<path d="M92.7641 88.8112H76.7162C76.3116 88.8112 75.9824 88.482 75.9824 88.0774C75.9824 87.6728 76.3116 87.3438 76.7162 87.3438H92.7641C93.1687 87.3438 93.4977 87.6728 93.4977 88.0774C93.4977 88.482 93.1687 88.8112 92.7641 88.8112Z" fill="#3F3D56"/>
<path d="M84.7917 110.383H68.7438C68.3392 110.383 68.01 110.054 68.01 109.649C68.01 109.245 68.3392 108.916 68.7438 108.916H84.7917C85.1963 108.916 85.5253 109.245 85.5253 109.649C85.5253 110.054 85.1963 110.383 84.7917 110.383Z" fill="#3F3D56"/>
<path d="M101.376 80.9932H68.1046C67.7 80.9932 67.3708 80.664 67.3708 80.2594C67.3708 79.8549 67.7001 79.5258 68.1046 79.5258H101.376C101.78 79.5258 102.109 79.8549 102.109 80.2594C102.109 80.664 101.78 80.9932 101.376 80.9932Z" fill="#3F3D56"/>
</g>
<defs>
<clipPath id="clip0_525_1808">
<rect width="246.047" height="215" fill="white"/>
</clipPath>
</defs>
</svg>
