<svg width="374" height="215" viewBox="0 0 374 215" fill="none" xmlns="http://www.w3.org/2000/svg">
<g clip-path="url(#clip0_526_1850)">
<path d="M186.782 215C289.939 215 373.565 210.19 373.565 204.257C373.565 198.324 289.939 193.515 186.782 193.515C83.6253 193.515 0 198.324 0 204.257C0 210.19 83.6253 215 186.782 215Z" fill="#F2F2F2"/>
<path d="M340.088 0H59.4873V8.92712H340.088V0Z" fill="#F2F2F2"/>
<path d="M66.9962 6.64239C68.2722 6.64239 69.3066 5.60799 69.3066 4.332C69.3066 3.056 68.2722 2.02161 66.9962 2.02161C65.7202 2.02161 64.6858 3.056 64.6858 4.332C64.6858 5.60799 65.7202 6.64239 66.9962 6.64239Z" fill="#DE2D59"/>
<path d="M74.5047 6.64239C75.7807 6.64239 76.8151 5.60799 76.8151 4.332C76.8151 3.056 75.7807 2.02161 74.5047 2.02161C73.2287 2.02161 72.1943 3.056 72.1943 4.332C72.1943 5.60799 73.2287 6.64239 74.5047 6.64239Z" fill="#DE2D59"/>
<path d="M82.0135 6.64239C83.2895 6.64239 84.3239 5.60799 84.3239 4.332C84.3239 3.056 83.2895 2.02161 82.0135 2.02161C80.7375 2.02161 79.7031 3.056 79.7031 4.332C79.7031 5.60799 80.7375 6.64239 82.0135 6.64239Z" fill="#DE2D59"/>
<path d="M59.686 141.19L59.4871 141.361V201.581H340.087V95.8022L336.743 96.0559L59.686 141.19Z" fill="#3F3D56"/>
<path d="M158.095 59.7162H79.7375V62.8758H158.095V59.7162Z" fill="#3F3D56"/>
<path d="M158.095 66.6673H79.7375V69.8269H158.095V66.6673Z" fill="#3F3D56"/>
<path d="M106.278 73.6183H79.7375V76.7779H106.278V73.6183Z" fill="#3F3D56"/>
<path d="M317.891 147.434H239.533V150.593H317.891V147.434Z" fill="white"/>
<path d="M317.891 154.385H239.533V157.544H317.891V154.385Z" fill="white"/>
<path d="M266.074 161.336H239.533V164.496H266.074V161.336Z" fill="white"/>
<path d="M190.849 198.668C192.551 198.668 193.931 197.288 193.931 195.586C193.931 193.884 192.551 192.504 190.849 192.504C189.147 192.504 187.767 193.884 187.767 195.586C187.767 197.288 189.147 198.668 190.849 198.668Z" fill="#F2F2F2"/>
<path d="M199.787 198.977C201.49 198.977 202.87 197.597 202.87 195.894C202.87 194.192 201.49 192.812 199.787 192.812C198.085 192.812 196.705 194.192 196.705 195.894C196.705 197.597 198.085 198.977 199.787 198.977Z" fill="#F2F2F2"/>
<path d="M208.726 199.285C210.428 199.285 211.808 197.905 211.808 196.203C211.808 194.5 210.428 193.12 208.726 193.12C207.024 193.12 205.644 194.5 205.644 196.203C205.644 197.905 207.024 199.285 208.726 199.285Z" fill="#F2F2F2"/>
<path d="M199.816 198.36C201.178 198.36 202.282 197.256 202.282 195.894C202.282 194.533 201.178 193.429 199.816 193.429C198.454 193.429 197.35 194.533 197.35 195.894C197.35 197.256 198.454 198.36 199.816 198.36Z" fill="#3F3D56"/>
<path d="M132.117 95.882H105.577V101.937H132.117V95.882Z" fill="#3F3D56"/>
<path d="M289.873 177.82H263.333V183.875H289.873V177.82Z" fill="white"/>
<path opacity="0.3" d="M273.48 71.801C283.62 71.801 291.839 63.5812 291.839 53.4415C291.839 43.3019 283.62 35.082 273.48 35.082C263.34 35.082 255.12 43.3019 255.12 53.4415C255.12 63.5812 263.34 71.801 273.48 71.801Z" fill="#DE2D59"/>
<path opacity="0.3" d="M273.48 65.6812C280.24 65.6812 285.72 60.2013 285.72 53.4415C285.72 46.6817 280.24 41.2018 273.48 41.2018C266.72 41.2018 261.24 46.6817 261.24 53.4415C261.24 60.2013 266.72 65.6812 273.48 65.6812Z" fill="#DE2D59"/>
<path d="M273.48 61.9412C278.174 61.9412 281.98 58.1358 281.98 53.4415C281.98 48.7472 278.174 44.9417 273.48 44.9417C268.786 44.9417 264.98 48.7472 264.98 53.4415C264.98 58.1358 268.786 61.9412 273.48 61.9412Z" fill="#DE2D59"/>
<path d="M30.5726 37.1818L38.1292 37.4748L38.5059 27.7593L30.9494 27.4663L30.5726 37.1818Z" fill="#DE2D59"/>
<path d="M65.0368 61.4921C65.0368 61.4921 75.5014 56.4923 75.3339 60.8103C75.1665 65.1283 64.7856 67.9691 64.7856 67.9691L65.0368 61.4921Z" fill="#FFB9B9"/>
<path d="M59.2955 98.0277C59.2955 98.0277 64.2325 110.112 66.0566 118.831C67.8807 127.551 70.6588 139.551 67.0854 148.061C63.512 156.572 53.3525 181.584 53.2479 184.283C53.1432 186.982 54.118 189.722 51.959 189.639C49.8 189.555 38.0511 185.856 37.5742 184.216C37.0972 182.576 41.5827 178.425 41.5827 178.425L52.6586 143.718L41.1025 121.107L32.7672 154.839L31.1346 196.94C31.1346 196.94 23.1221 194.467 21.9588 196.584C21.9588 196.584 18.369 191.58 17.9129 189.4C17.4569 187.22 19.6083 145.68 19.6083 145.68C19.6083 145.68 12.2535 98.3658 18.1908 98.596C24.128 98.8262 47.3836 84.5923 59.2955 98.0277Z" fill="#2F2E41"/>
<path d="M52.0429 187.48C52.0429 187.48 57.5196 199.584 58.0385 200.145C58.5573 200.706 62.1262 206.25 59.4275 206.145C56.7287 206.04 50.3564 203.091 45.6661 198.584C40.9758 194.078 34.7918 186.27 35.3525 185.751C35.9131 185.232 39.7542 183.76 39.7542 183.76L52.0429 187.48Z" fill="#2F2E41"/>
<path d="M30.1597 194.199C30.1597 194.199 30.4901 199.617 31.4859 201.818C32.4817 204.019 32.3561 207.258 29.6574 207.153C26.9586 207.048 19.9837 205.697 19.9837 205.697C19.9837 205.697 19.5695 202.437 20.1302 201.918C20.6909 201.4 23.0801 195.546 22.0634 193.885C21.0467 192.224 30.1597 194.199 30.1597 194.199Z" fill="#2F2E41"/>
<path d="M26.1671 18.3616C26.1671 18.3616 20.4138 27.328 18.1711 29.4033C15.9284 31.4786 22.2379 36.0477 22.2379 36.0477L33.5308 37.5668C33.5308 37.5668 33.3887 27.2906 33.9704 26.232C34.552 25.1735 26.1671 18.3616 26.1671 18.3616Z" fill="#FFB9B9"/>
<path d="M35.9828 30.094C35.9828 30.094 33.6564 34.3283 31.4974 34.2446C29.3384 34.1608 18.1711 29.4033 17.6941 27.7631C17.2171 26.1229 13.9951 39.512 13.9951 39.512L41.3207 87.6005L47.9861 82.9939L44.7565 54.7595L42.104 39.5209L35.9828 30.094Z" fill="#DE2D59"/>
<path d="M16.6863 73.1312C17.7763 75.4114 18.4571 77.7892 18.3627 80.2235C18.3585 80.3315 18.3543 80.4394 18.3447 80.5472C18.0861 85.5427 16.2458 91.3203 15.5856 95.5219C15.1065 98.5358 15.2428 100.736 17.0066 101.253C21.2828 102.5 16.3831 103.391 32.927 108.898C49.4709 114.404 52.358 109.651 52.3999 108.572C52.4417 107.492 50.057 99.2911 50.6176 98.7723C51.1783 98.2535 58.4627 105.563 60.6636 104.567C62.8644 103.572 60.9147 98.0905 60.9147 98.0905C60.9147 98.0905 55.9568 86.5464 56.0614 83.8477C56.1661 81.1489 48.5512 68.4207 48.5512 68.4207L43.3719 34.705C43.3719 34.705 41.3804 30.3033 38.7025 29.6589C36.0247 29.0145 33.8029 30.55 33.8029 30.55L38.284 40.4539L43.0117 57.9352L42.2208 64.3913C42.2208 64.3913 36.7231 52.8263 33.1122 48.3618C29.5014 43.8973 21.8029 33.3281 21.8029 33.3281C21.8029 33.3281 20.0055 27.2635 21.3623 25.4512C22.7194 23.6335 15.7026 23.3614 12.7108 30.8132C11.1252 34.7627 8.55079 40.6523 6.93807 46.136C5.50099 50.9939 4.82216 55.5353 6.24589 58.1312C8.42191 62.0968 13.8957 67.3093 16.6863 73.1312Z" fill="#575A89"/>
<path opacity="0.1" d="M6.24589 58.1312C8.42193 62.0968 13.8957 67.3092 16.6863 73.1312C17.4151 70.5053 18.3043 67.7883 18.3043 67.7883C18.3043 67.7883 21.7147 49.5415 11.6269 44.8258C9.95542 44.6642 8.28369 45.1313 6.93808 46.1359C5.50099 50.9939 4.82216 55.5353 6.24589 58.1312Z" fill="black"/>
<path d="M46.2919 56.9813L54.8442 59.4752L66.7187 59.9357L67.9403 70.2537L48.4255 71.6592C48.4255 71.6592 43.5513 57.9562 46.2919 56.9813Z" fill="#575A89"/>
<path d="M32.3465 91.6738C32.3465 91.6738 43.7877 93.572 41.1764 97.015C38.565 100.458 28.4294 96.8382 28.4294 96.8382L32.3465 91.6738Z" fill="#FFB9B9"/>
<path opacity="0.1" d="M18.3446 80.5471C18.086 85.5427 16.2457 91.3202 15.5854 95.5218C19.2302 98.9714 22.6961 102.014 24.0023 102.065C26.7011 102.169 31.04 101.797 32.6383 102.4C34.2367 103.002 35.1741 92.7678 35.1741 92.7678C35.1741 92.7678 34.2202 89.4874 29.965 87.7007C27.0928 86.492 21.5873 83.2135 18.3446 80.5471Z" fill="black"/>
<path d="M11.7525 41.5873C11.7525 41.5873 2.61862 40.152 3.11207 55.3069C3.60552 70.4617 2.14927 80.1353 5.82287 82.9806C9.49646 85.8259 21.4293 98.7215 24.1281 98.8262C26.8268 98.9308 31.1658 98.5585 32.7641 99.1611C34.3624 99.7636 35.2998 89.5293 35.2998 89.5293C35.2998 89.5293 34.3459 86.2489 30.0907 84.4622C25.8355 82.6755 15.8105 76.3406 15.8942 74.1816C15.9779 72.0226 18.4299 64.5498 18.4299 64.5498C18.4299 64.5498 21.8403 46.303 11.7525 41.5873Z" fill="#575A89"/>
<path d="M34.2216 31.6384C40.7846 31.6384 46.105 26.318 46.105 19.755C46.105 13.192 40.7846 7.87158 34.2216 7.87158C27.6585 7.87158 22.3381 13.192 22.3381 19.755C22.3381 26.318 27.6585 31.6384 34.2216 31.6384Z" fill="#FFB9B9"/>
<path d="M42.223 2.72265C42.5097 2.9696 42.8529 3.14185 43.2222 3.22406C43.4076 3.25711 43.5986 3.21547 43.7534 3.10824C43.9082 3.00101 44.0143 2.83688 44.0485 2.6517C44.3204 3.21554 44.6271 3.81649 45.1822 4.10581C45.7373 4.39512 46.5957 4.15252 46.6757 3.53168C46.7567 4.00307 46.9653 4.44328 47.2787 4.80458C47.6231 5.13296 48.2477 5.21584 48.5484 4.84702C48.3053 6.17552 48.4553 7.54174 48.379 8.89013C48.3026 10.2385 47.9431 11.668 46.9243 12.5547C45.4386 13.8478 43.2045 13.5286 41.2501 13.2837C40.9546 13.2216 40.6479 13.2384 40.3609 13.3323C39.6292 13.6441 39.6624 14.6627 39.6525 15.4581C39.5928 16.8536 39.0405 18.1828 38.0936 19.2097C37.1467 20.2365 35.8666 20.8946 34.4805 21.0671C33.7048 21.1868 32.9133 20.9936 32.2799 20.53C31.725 20.0597 31.4416 19.2931 30.8058 18.9398C29.7715 18.3651 28.5171 19.2032 27.7609 20.1133C27.0047 21.0233 26.2595 22.1428 25.088 22.3094C23.5387 22.5297 22.3587 20.9508 21.7797 19.4969C20.981 17.4592 20.5983 15.2822 20.6543 13.0943C20.7102 10.9064 21.2037 8.75177 22.1056 6.75756C25.3406 -0.294206 36.3914 -1.40958 42.223 2.72265Z" fill="#2F2E41"/>
<path d="M327.487 191.676C331.672 198.814 340.113 201.639 340.113 201.639C340.113 201.639 341.768 192.893 337.583 185.756C333.398 178.619 324.957 175.793 324.957 175.793C324.957 175.793 323.301 184.539 327.487 191.676Z" fill="#F2F2F2"/>
<path d="M330.098 189.185C337.336 193.194 340.368 201.563 340.368 201.563C340.368 201.563 331.665 203.432 324.427 199.424C317.19 195.415 314.157 187.046 314.157 187.046C314.157 187.046 322.86 185.177 330.098 189.185Z" fill="#DE2D59"/>
</g>
<defs>
<clipPath id="clip0_526_1850">
<rect width="373.565" height="215" fill="white"/>
</clipPath>
</defs>
</svg>
