<svg width="83" height="83" viewBox="0 0 83 83" fill="none" xmlns="http://www.w3.org/2000/svg">
<circle cx="41.5" cy="41.5" r="40" fill="url(#paint0_radial_726_67)" stroke="#F5F5F5" stroke-width="3"/>
<path d="M40.8024 11.9067C41.5279 10.684 43.3114 10.7014 44.0127 11.938L63.5427 46.3757C64.244 47.6123 63.3371 49.1407 61.9103 49.1268L22.1765 48.7397C20.7497 48.7258 19.8731 47.18 20.5986 45.9573L40.8024 11.9067Z" fill="#FAFAFA"/>
<path d="M20.348 49.5318C20.3296 49.4659 20.2714 49.4175 20.2029 49.4168V49.4168C20.1031 49.4158 20.0318 49.513 20.0625 49.6079L25.1353 65.2677C25.1358 65.2693 25.1373 65.2704 25.139 65.2705V65.2705C25.1411 65.2705 25.1429 65.2723 25.1429 65.2744C25.1455 66.0224 25.7477 66.6945 26.5708 66.7025L57.0906 66.9999C57.8596 67.0074 58.4472 66.4316 58.5353 65.746C58.5388 65.719 58.5617 65.6983 58.5889 65.6987V65.6987C58.6116 65.699 58.6319 65.6846 58.6391 65.6631L63.9351 50.0352C63.9671 49.9407 63.8974 49.8426 63.7977 49.8416V49.8416C63.7289 49.8409 63.6696 49.8883 63.6498 49.9541C63.4266 50.6976 62.7402 51.2857 61.8527 51.2771L22.1188 50.8899C21.2311 50.8813 20.5564 50.2797 20.348 49.5318Z" fill="#FAFAFA"/>
<defs>
<radialGradient id="paint0_radial_726_67" cx="0" cy="0" r="1" gradientUnits="userSpaceOnUse" gradientTransform="translate(40.7425 2.63046) rotate(89.439) scale(77.3733)">
<stop stop-color="#FF87DD"/>
<stop offset="1" stop-color="#FF1523"/>
</radialGradient>
</defs>
</svg>
