<svg width="77" height="77" viewBox="0 0 77 77" fill="none" xmlns="http://www.w3.org/2000/svg">
<circle cx="38.5" cy="38.5" r="38.5" fill="url(#paint0_radial_726_67)"/>
<path d="M37.8024 8.90669C38.5279 7.68399 40.3114 7.70137 41.0127 8.93797L60.5427 43.3757C61.244 44.6123 60.3371 46.1407 58.9103 46.1268L19.1765 45.7397C17.7497 45.7258 16.8731 44.18 17.5986 42.9573L37.8024 8.90669Z" fill="#FAFAFA"/>
<path d="M17.348 46.5318C17.3296 46.4659 17.2714 46.4175 17.2029 46.4168V46.4168C17.1031 46.4158 17.0318 46.513 17.0625 46.6079L22.1353 62.2677C22.1358 62.2693 22.1373 62.2704 22.139 62.2705V62.2705C22.1411 62.2705 22.1429 62.2723 22.1429 62.2744C22.1455 63.0224 22.7477 63.6945 23.5708 63.7025L54.0906 63.9999C54.8596 64.0074 55.4472 63.4316 55.5353 62.746C55.5388 62.719 55.5617 62.6983 55.5889 62.6987V62.6987C55.6116 62.699 55.6319 62.6846 55.6391 62.6631L60.9351 47.0352C60.9671 46.9407 60.8974 46.8426 60.7977 46.8416V46.8416C60.7289 46.8409 60.6696 46.8883 60.6498 46.9541C60.4266 47.6976 59.7402 48.2857 58.8527 48.2771L19.1188 47.8899C18.2311 47.8813 17.5564 47.2797 17.348 46.5318Z" fill="#FAFAFA"/>
<defs>
<radialGradient id="paint0_radial_726_67" cx="0" cy="0" r="1" gradientUnits="userSpaceOnUse" gradientTransform="translate(37.7425 -0.369543) rotate(89.439) scale(77.3733)">
<stop stop-color="#FF87DD"/>
<stop offset="1" stop-color="#FF1523"/>
</radialGradient>
</defs>
</svg>
