<svg width="198" height="74" viewBox="0 0 198 74" fill="none" xmlns="http://www.w3.org/2000/svg">
<path d="M70.08 25.176V34.92H66V4.824H76.224C80.48 4.824 83.52 5.592 85.344 7.128C87.2 8.664 88.128 11.176 88.128 14.664C88.128 18.216 87.168 20.856 85.248 22.584C83.328 24.312 80.368 25.176 76.368 25.176H70.08ZM84 14.664C84 12.456 83.392 10.888 82.176 9.96C80.992 9 79.008 8.52 76.224 8.52H70.08V21.576H76.224C79.008 21.576 80.992 21.032 82.176 19.944C83.392 18.856 84 17.096 84 14.664Z" fill="#FAFAFA"/>
<path d="M96.6949 34.92H92.7589V11.208H96.3589L96.5509 13.224H96.7429C97.9909 12.488 99.2389 11.944 100.487 11.592C101.735 11.208 102.967 11.016 104.183 11.016C104.695 11.016 105.031 11.016 105.191 11.016C105.383 11.016 105.527 11.032 105.623 11.064V14.856C105.399 14.792 105.111 14.76 104.759 14.76C104.439 14.728 103.927 14.712 103.223 14.712C102.071 14.712 100.935 14.856 99.8149 15.144C98.7269 15.4 97.6869 15.8 96.6949 16.344V34.92Z" fill="#FAFAFA"/>
<path d="M113.761 7.08H109.537V3H113.761V7.08ZM113.617 34.92H109.681V11.208H113.617V34.92Z" fill="#FAFAFA"/>
<path d="M128.106 14.28C126.058 14.28 124.634 14.52 123.834 15C123.066 15.48 122.682 16.456 122.682 17.928C122.682 18.696 122.858 19.288 123.21 19.704C123.594 20.088 124.186 20.344 124.986 20.472L131.082 21.384C133.002 21.672 134.346 22.28 135.114 23.208C135.882 24.104 136.266 25.528 136.266 27.48C136.266 30.232 135.61 32.232 134.298 33.48C132.986 34.696 130.81 35.304 127.77 35.304C125.946 35.304 124.25 35.208 122.682 35.016C121.114 34.824 119.818 34.568 118.794 34.248V30.552C119.818 30.872 121.066 31.144 122.538 31.368C124.042 31.56 125.578 31.656 127.146 31.656C129.13 31.656 130.49 31.368 131.226 30.792C131.962 30.216 132.33 29.192 132.33 27.72C132.33 26.792 132.122 26.12 131.706 25.704C131.29 25.256 130.538 24.952 129.45 24.792L123.354 23.88C121.818 23.656 120.666 23.064 119.898 22.104C119.162 21.144 118.778 19.752 118.746 17.928C118.746 15.432 119.482 13.608 120.954 12.456C122.458 11.304 124.762 10.728 127.866 10.728C129.146 10.728 130.298 10.76 131.322 10.824C132.378 10.888 133.482 11.016 134.634 11.208V14.712C133.802 14.584 132.826 14.488 131.706 14.424C130.586 14.328 129.386 14.28 128.106 14.28Z" fill="#FAFAFA"/>
<path d="M144.976 34.92H141.04V11.208H144.64L144.832 13.032H144.976C146.384 12.232 147.664 11.656 148.816 11.304C149.968 10.92 151.12 10.728 152.272 10.728C153.616 10.728 154.768 10.936 155.728 11.352C156.688 11.768 157.44 12.392 157.984 13.224H158.128C159.408 12.424 160.752 11.816 162.16 11.4C163.6 10.952 165.04 10.728 166.48 10.728C168.752 10.728 170.464 11.336 171.616 12.552C172.8 13.736 173.392 15.496 173.392 17.832V34.92H169.456V18.312C169.456 16.936 169.088 15.928 168.352 15.288C167.616 14.616 166.448 14.28 164.848 14.28C163.952 14.28 163.008 14.424 162.016 14.712C161.024 14.968 160.032 15.352 159.04 15.864C159.104 16.184 159.136 16.504 159.136 16.824C159.168 17.144 159.184 17.48 159.184 17.832V34.92H155.248V18.312C155.248 16.936 154.88 15.928 154.144 15.288C153.408 14.616 152.24 14.28 150.64 14.28C149.84 14.28 148.992 14.424 148.096 14.712C147.2 14.968 146.16 15.416 144.976 16.056V34.92Z" fill="#FAFAFA"/>
<path d="M184.9 35.304C182.468 35.304 180.676 34.728 179.524 33.576C178.404 32.392 177.844 30.536 177.844 28.008C177.844 25.448 178.533 23.64 179.909 22.584C181.285 21.496 183.621 20.952 186.917 20.952C188.005 20.952 189.076 21 190.132 21.096C191.189 21.192 192.18 21.336 193.108 21.528V19.224C193.108 17.464 192.661 16.2 191.765 15.432C190.869 14.664 189.429 14.28 187.445 14.28C185.973 14.28 184.677 14.344 183.557 14.472C182.437 14.568 181.317 14.744 180.197 15V11.592C181.477 11.272 182.773 11.048 184.085 10.92C185.429 10.792 186.949 10.728 188.645 10.728C191.493 10.728 193.604 11.4 194.98 12.744C196.356 14.056 197.044 16.104 197.044 18.888V34.92H193.445L193.253 32.712H193.157C192.197 33.48 190.948 34.104 189.412 34.584C187.908 35.064 186.404 35.304 184.9 35.304ZM187.349 24.168C185.173 24.168 183.652 24.44 182.788 24.984C181.956 25.496 181.54 26.424 181.54 27.768C181.54 29.176 181.892 30.2 182.596 30.84C183.3 31.448 184.452 31.752 186.052 31.752C187.3 31.752 188.581 31.56 189.893 31.176C191.205 30.792 192.276 30.312 193.108 29.736V24.648C192.052 24.488 191.061 24.376 190.132 24.312C189.236 24.216 188.309 24.168 187.349 24.168Z" fill="#FAFAFA"/>
<path d="M107.528 70.92L101.96 50.856H104.904L108.232 63.56C108.317 63.9013 108.403 64.3067 108.488 64.776C108.595 65.224 108.819 66.3973 109.16 68.296C109.544 66.3547 109.789 65.16 109.896 64.712C110.003 64.264 110.099 63.88 110.184 63.56L113.832 50.856H116.68L120.36 63.56C120.445 63.88 120.541 64.2533 120.648 64.68C120.755 65.1067 121 66.2907 121.384 68.232C121.619 66.9307 121.811 65.896 121.96 65.128C122.131 64.3387 122.248 63.816 122.312 63.56L125.608 50.856H128.456L122.888 70.92H119.816L116.584 60.168C116.349 59.3787 116.125 58.536 115.912 57.64C115.699 56.744 115.464 55.6773 115.208 54.44C114.952 55.6773 114.717 56.744 114.504 57.64C114.291 58.536 114.067 59.3787 113.832 60.168L110.632 70.92H107.528Z" fill="#FAFAFA"/>
<path d="M142.09 67.848V70.056C141.536 70.3547 140.715 70.6213 139.627 70.856C138.56 71.0693 137.472 71.176 136.363 71.176C133.888 71.176 132.117 70.536 131.05 69.256C129.984 67.976 129.451 65.864 129.451 62.92C129.451 60.0827 130.005 58.024 131.115 56.744C132.224 55.4427 133.994 54.792 136.426 54.792C138.688 54.792 140.309 55.304 141.291 56.328C142.272 57.3307 142.763 59.016 142.763 61.384C142.763 61.8107 142.752 62.2053 142.73 62.568C142.709 62.9307 142.667 63.368 142.603 63.88H132.106C132.128 65.6293 132.48 66.8773 133.162 67.624C133.866 68.3707 135.072 68.744 136.779 68.744C137.696 68.744 138.656 68.6587 139.659 68.488C140.661 68.3173 141.472 68.104 142.09 67.848ZM140.363 61.032C140.341 59.624 140.032 58.632 139.435 58.056C138.837 57.4587 137.834 57.16 136.426 57.16C134.848 57.16 133.728 57.5013 133.066 58.184C132.426 58.8453 132.106 60.0187 132.106 61.704H140.33C140.33 61.6613 140.33 61.5653 140.33 61.416C140.352 61.2453 140.363 61.1173 140.363 61.032Z" fill="#FAFAFA"/>
<path d="M153.964 54.792C156.119 54.792 157.655 55.432 158.572 56.712C159.511 57.9707 159.98 60.04 159.98 62.92C159.98 65.864 159.404 67.976 158.252 69.256C157.1 70.536 155.169 71.176 152.46 71.176C151.244 71.176 150.103 71.1013 149.036 70.952C147.969 70.824 146.999 70.6213 146.124 70.344V49.64H148.748V56.2C149.495 55.752 150.316 55.4107 151.212 55.176C152.108 54.92 153.025 54.792 153.964 54.792ZM157.356 62.92C157.356 60.7653 157.047 59.272 156.428 58.44C155.831 57.5867 154.7 57.16 153.036 57.16C152.268 57.16 151.511 57.2667 150.764 57.48C150.017 57.672 149.345 57.9493 148.748 58.312V68.328C149.217 68.456 149.751 68.5627 150.348 68.648C150.945 68.712 151.596 68.744 152.3 68.744C154.284 68.744 155.617 68.328 156.3 67.496C157.004 66.664 157.356 65.1387 157.356 62.92Z" fill="#FAFAFA"/>
<path d="M27.4214 1.19813C28.3777 -0.417589 30.7286 -0.394624 31.6531 1.23946L57.3972 46.7465C58.3216 48.3806 57.1262 50.4002 55.2454 50.3819L2.86898 49.8703C0.98822 49.8519 -0.167311 47.8093 0.789016 46.1936L27.4214 1.19813Z" fill="#FAFAFA"/>
<path d="M0.458645 50.9168C0.434454 50.8298 0.357651 50.766 0.267315 50.7651V50.7651C0.135839 50.7638 0.04177 50.8917 0.0821988 51.0168L6.76925 71.711C6.76994 71.7131 6.77189 71.7145 6.77412 71.7145V71.7145C6.77695 71.7146 6.77922 71.7169 6.77923 71.7197C6.78271 72.7081 7.57651 73.5963 8.66152 73.6069L48.8922 73.9999C49.9059 74.0098 50.6805 73.2488 50.7966 72.3428C50.8011 72.3072 50.8313 72.2799 50.8672 72.2804V72.2804C50.8971 72.2808 50.9238 72.2618 50.9334 72.2335L57.9146 51.5816C57.9567 51.457 57.8649 51.3277 57.7334 51.3264V51.3264C57.6428 51.3255 57.5644 51.388 57.5384 51.4749C57.2442 52.4574 56.3395 53.2347 55.1694 53.2233L2.79299 52.7117C1.62278 52.7002 0.733328 51.9051 0.458645 50.9168Z" fill="#FAFAFA"/>
</svg>
