<svg width="298" height="215" viewBox="0 0 298 215" fill="none" xmlns="http://www.w3.org/2000/svg">
<g clip-path="url(#clip0_523_1496)">
<path d="M297.5 118.373C297.5 118.582 297.331 118.752 297.122 118.752H0.5V117.995H297.122C297.331 117.995 297.5 118.165 297.5 118.373Z" fill="#E6E6E6"/>
<path d="M98.0308 26.5315C104.222 26.5315 109.24 21.5101 109.24 15.316C109.24 9.12182 104.222 4.10046 98.0308 4.10046C91.8399 4.10046 86.8212 9.12182 86.8212 15.316C86.8212 21.5101 91.8399 26.5315 98.0308 26.5315Z" fill="#FFB6B6"/>
<path d="M103.971 28.898L89.2161 33.1159L87.1082 37.861L82.3656 60.5322V96.3842C82.3656 96.3842 76.569 109.038 79.7308 120.11C83.1104 131.945 95.0126 117.976 103.971 119.57C112.929 121.164 127.157 122.746 127.157 122.746L118.726 84.2578L116.618 37.3338L103.971 28.898Z" fill="#E6E6E6"/>
<path d="M101.186 18.9888L98.9074 17.8487C98.9074 17.8487 98.3377 12.7182 97.1982 11.5781C96.0586 10.438 96.0587 9.86789 96.0587 9.86789L97.7679 7.58767C97.7679 7.58767 89.2216 12.1481 87.5123 9.29784C85.803 6.44756 88.0821 5.30745 88.0821 5.30745L85.2333 3.02722C85.2333 3.02722 88.6518 5.30745 89.2216 3.59728C89.7913 1.88711 93.2099 0.726795 93.2099 0.726795C93.2099 0.726795 100.675 2.41676 100.076 0.726795C99.4772 -0.963174 101.756 0.746996 102.326 1.31705C102.896 1.88711 108.024 7.58767 108.593 7.01761C109.163 6.44756 112.012 8.15772 111.442 8.72778C110.872 9.29784 110.872 9.86789 111.442 10.438C112.012 11.008 115.43 17.2786 112.582 19.5588C109.733 21.8391 105.744 24.6894 106.314 26.9696C106.884 29.2498 106.314 19.5588 101.186 18.9888Z" fill="#2F2E41"/>
<path d="M45.9283 47.2264C43.0512 44.745 41.9988 41.2482 43.5775 39.4165C45.1562 37.5848 48.7677 38.1119 51.6455 40.5946C52.8087 41.5706 53.7213 42.8111 54.3071 44.2123L66.3648 54.8805L61.2406 60.4351L49.8978 49.3284C48.4258 48.955 47.0647 48.2342 45.9283 47.2264Z" fill="#FFB6B6"/>
<path d="M87.2347 38.0424L95.1772 37.3199L102.143 70.5571C103.47 76.8903 99.3206 83.0735 92.9593 84.2418L87.2347 85.2931L50.748 53.1509L56.0787 44.2597L82.986 61.1472L87.2347 38.0424Z" fill="#E6E6E6"/>
<path d="M69.5028 185.852C69.5028 185.852 63.2032 197.557 63.6531 197.107C64.1031 196.657 71.7526 199.358 71.7526 199.358L76.2524 187.653L69.5028 185.852Z" fill="#FFB6B6"/>
<path d="M60.2047 103.916C60.2047 103.916 56.98 116.813 57.3053 116.266C57.6306 115.719 65.7094 116.452 65.7094 116.452L67.1897 103.998L60.2047 103.916Z" fill="#FFB6B6"/>
<path d="M116.3 101.747C102.063 103.748 89.2047 102.004 78.7271 93.7842C78.7271 93.7842 71.0776 119.446 85.0268 122.147C98.9759 124.849 114.5 120.206 116.3 115.704C118.1 111.202 116.3 101.747 116.3 101.747Z" fill="#2F2E41"/>
<path d="M89.7516 109.851L74.2275 146.459L67.028 188.778L76.4774 191.029L93.3797 152.086L116.3 114.803L89.7516 109.851Z" fill="#2F2E41"/>
<path d="M87.7267 99.4119C87.7267 99.4119 84.1269 71.4989 77.3773 69.698C74.0869 68.8201 71.0103 68.9052 68.7211 69.223C66.4138 69.5432 64.5744 71.307 64.171 73.6024L58.0374 108.5H66.7108L69.5028 99.0461L76.9273 112.018L87.7267 99.4119Z" fill="#2F2E41"/>
<path d="M65.678 112.918L57.1019 112.018L55.7786 116.97C55.7786 116.97 41.8294 129.576 49.029 130.476C56.2286 131.377 62.9781 126.424 62.9781 126.424L72.882 120.74C72.882 120.74 69.0528 110.526 66.3529 110.526C63.6531 110.526 65.678 112.918 65.678 112.918Z" fill="#2F2E41"/>
<path d="M70.1777 197.332L61.6017 196.432L60.2783 201.384C60.2783 201.384 46.3292 213.99 53.5287 214.891C60.7283 215.791 67.4779 210.839 67.4779 210.839L77.3817 205.154C77.3817 205.154 76.7023 194.49 74.0025 194.49C71.3027 194.49 70.1777 197.332 70.1777 197.332Z" fill="#2F2E41"/>
<path d="M113.601 129.178C112.567 132.726 109.899 135.068 107.642 134.41C105.385 133.751 104.395 130.341 105.429 126.791C105.823 125.368 106.552 124.059 107.555 122.976L112.126 107.997L119.106 110.293L113.859 124.815C114.122 126.269 114.034 127.765 113.601 129.178Z" fill="#FFB6B6"/>
<path d="M118.432 37.399L114.793 36.372C111.361 43.2037 109.885 50.8521 110.529 58.4709L112.325 79.7299L106.398 117.096L118.015 120.103L127.169 73.2101L118.432 37.399Z" fill="#E6E6E6"/>
<path d="M47.5795 95.8206C47.4201 95.3327 46.2122 95.5475 46.0962 95.111C45.9806 94.6762 47.1397 94.3115 48.0287 93.086C48.1891 92.865 49.1993 91.4723 48.8118 90.8865C48.0774 89.7761 42.9675 92.5415 41.741 90.9897C41.4718 90.6491 41.361 90.0645 40.5591 88.9764C40.2401 88.5435 40.0354 88.3345 39.7909 88.3407C39.4439 88.3495 39.3197 88.7838 38.7744 89.5705C37.9565 90.7504 37.6614 90.6023 37.1226 91.569C36.7226 92.2866 36.6752 92.7452 36.3868 92.7722C35.9786 92.8105 35.81 91.917 35.3113 91.8823C34.8023 91.8469 34.2931 92.7298 34.0406 93.4196C33.5669 94.714 33.8602 95.7033 33.9253 96.6893C33.996 97.7608 33.83 99.3294 32.6664 101.343L21.6908 118.839C24.0479 115.272 30.7388 105.546 33.4346 101.978C34.2128 100.948 35.0491 99.9142 36.3363 99.7197C37.5756 99.5323 39.0834 100.146 41.1881 100.11C41.4339 100.106 42.118 100.086 42.2843 99.7228C42.4219 99.4229 42.0804 99.1622 42.2046 98.8803C42.3713 98.5021 43.1211 98.6644 44.143 98.4132C44.8636 98.2361 45.3531 97.9436 45.7741 97.6919C45.901 97.6161 47.7917 96.4702 47.5795 95.8206Z" fill="#F2F2F2"/>
<path d="M18.8325 99.9055C18.5471 99.843 18.304 100.498 18.0564 100.429C17.8098 100.36 17.9653 99.686 17.6206 98.8959C17.5585 98.7534 17.1668 97.8555 16.7676 97.8767C16.0111 97.917 15.8932 101.224 14.7781 101.379C14.5334 101.413 14.2146 101.298 13.4494 101.378C13.1451 101.41 12.9835 101.45 12.916 101.572C12.8202 101.745 12.9974 101.931 13.226 102.426C13.5688 103.168 13.4109 103.27 13.7297 103.814C13.9663 104.217 14.1776 104.373 14.1076 104.522C14.0086 104.734 13.5217 104.559 13.3608 104.794C13.1966 105.033 13.4827 105.538 13.7482 105.861C14.2465 106.467 14.8165 106.609 15.3189 106.861C15.865 107.136 16.5865 107.67 17.2384 108.822L22.6542 119.26C21.5846 117.073 18.7441 110.981 17.7718 108.628C17.4912 107.949 17.2252 107.24 17.5011 106.552C17.7668 105.889 18.5028 105.326 19.0926 104.282C19.1614 104.16 19.3488 103.818 19.2189 103.632C19.1115 103.478 18.885 103.57 18.7826 103.428C18.6452 103.237 18.9411 102.915 19.1127 102.341C19.2338 101.936 19.2315 101.611 19.2295 101.332C19.2289 101.248 19.2123 99.9888 18.8325 99.9055Z" fill="#F2F2F2"/>
<path d="M24.2356 102.452L24.4058 100.88L24.5102 100.781C24.9933 100.324 25.2955 99.8403 25.4088 99.3422C25.4269 99.263 25.4409 99.1829 25.4552 99.1014C25.5117 98.778 25.5819 98.3761 25.8926 97.9586C26.0664 97.726 26.5264 97.2003 27.0008 97.384C27.1288 97.432 27.2152 97.515 27.2753 97.6031C27.2903 97.5878 27.3058 97.5726 27.3223 97.556C27.5272 97.3568 27.6705 97.2838 27.8086 97.2135C27.9147 97.1594 28.0243 97.1038 28.2097 96.9554C28.291 96.8903 28.3562 96.8318 28.4111 96.7826C28.5775 96.6339 28.7904 96.4598 29.0821 96.5287C29.3912 96.6133 29.4972 96.9083 29.5675 97.1037C29.6931 97.4521 29.7318 97.6917 29.7574 97.8506C29.7666 97.9086 29.7773 97.974 29.7854 97.9952C29.853 98.1659 30.7025 98.21 31.0221 98.2285C31.7405 98.2675 32.3621 98.3012 32.5116 98.7934C32.6189 99.1455 32.3953 99.5295 31.828 99.9652C31.6512 100.101 31.4746 100.194 31.3206 100.264C31.4153 100.354 31.4907 100.475 31.4954 100.641C31.5058 101.034 31.1032 101.335 30.2989 101.539C30.0991 101.59 29.8302 101.657 29.4785 101.64C29.3128 101.632 29.1677 101.606 29.0439 101.583C29.0255 101.653 28.9917 101.727 28.9307 101.796C28.7517 102.001 28.4626 102.053 28.0702 101.938C27.637 101.817 27.2947 101.653 26.9927 101.508C26.7288 101.383 26.5014 101.275 26.3105 101.246C25.9555 101.196 25.6245 101.415 25.2283 101.707L24.2356 102.452Z" fill="#F2F2F2"/>
<path d="M27.0688 93.4955L25.5053 93.7296L25.3833 93.6536C24.8192 93.302 24.2747 93.1322 23.7644 93.1489C23.6833 93.1515 23.6023 93.1583 23.5198 93.1652C23.1929 93.1924 22.7865 93.2265 22.3041 93.0317C22.0351 92.9224 21.4102 92.6106 21.4674 92.1049C21.4813 91.9688 21.5397 91.8641 21.6096 91.7837C21.591 91.773 21.5724 91.7619 21.5522 91.7501C21.3076 91.6023 21.2007 91.4821 21.0977 91.3663C21.0185 91.2773 20.9369 91.1854 20.7464 91.0436C20.6629 90.9814 20.5898 90.9332 20.5283 90.8926C20.3423 90.7692 20.12 90.6073 20.1127 90.3076C20.116 89.9869 20.3744 89.8095 20.5454 89.6919C20.8504 89.482 21.0722 89.3838 21.2193 89.3187C21.2731 89.2951 21.3336 89.2681 21.3521 89.2549C21.4999 89.1461 21.3271 88.3129 21.2639 87.9989C21.1193 87.2937 20.9943 86.6835 21.4322 86.414C21.7454 86.2209 22.1734 86.3398 22.7385 86.7784C22.9143 86.9151 23.0496 87.0623 23.1562 87.1936C23.2188 87.0793 23.3174 86.9753 23.4766 86.9288C23.8536 86.8192 24.247 87.1323 24.6474 87.8592C24.7475 88.0396 24.881 88.2827 24.9537 88.6275C24.9878 88.7899 25.0001 88.9368 25.0085 89.0625C25.0814 89.0625 25.1609 89.0766 25.2436 89.118C25.4872 89.2392 25.611 89.5058 25.5988 89.9149C25.5919 90.3648 25.5199 90.7377 25.4569 91.0666C25.4023 91.3538 25.356 91.6013 25.376 91.7934C25.418 92.1496 25.714 92.4144 26.0967 92.7237L27.0688 93.4955Z" fill="#F2F2F2"/>
<path d="M27.2794 88.7979L27.4497 87.2254L27.5541 87.1266C28.0371 86.6698 28.3393 86.1859 28.4527 85.6878C28.4707 85.6086 28.4847 85.5285 28.499 85.447C28.5555 85.1236 28.6257 84.7217 28.9364 84.3042C29.1103 84.0716 29.5702 83.5459 30.0446 83.7295C30.1726 83.7775 30.259 83.8606 30.3191 83.9486C30.3341 83.9334 30.3496 83.9181 30.3661 83.9016C30.571 83.7024 30.7144 83.6294 30.8524 83.5591C30.9585 83.505 31.0681 83.4494 31.2535 83.301C31.3349 83.2359 31.4 83.1774 31.4549 83.1282C31.6213 82.9795 31.8342 82.8053 32.1259 82.8743C32.435 82.9589 32.541 83.2539 32.6113 83.4492C32.7369 83.7977 32.7756 84.0373 32.8012 84.1962C32.8104 84.2542 32.8211 84.3196 32.8292 84.3408C32.8969 84.5115 33.7463 84.5556 34.0659 84.574C34.7843 84.613 35.4059 84.6468 35.5554 85.139C35.6627 85.4911 35.4391 85.8751 34.8718 86.3107C34.6951 86.4463 34.5184 86.5398 34.3645 86.6097C34.4591 86.6992 34.5346 86.8211 34.5392 86.987C34.5496 87.3797 34.147 87.681 33.3428 87.8841C33.1429 87.9352 32.8741 88.0027 32.5223 87.9856C32.3566 87.9774 32.2115 87.9521 32.0878 87.9283C32.0693 87.9989 32.0355 88.0722 31.9745 88.1418C31.7955 88.3468 31.5064 88.3989 31.114 88.2834C30.6808 88.1626 30.3385 87.9983 30.0365 87.854C29.7727 87.7282 29.5452 87.6207 29.3543 87.5913C28.9993 87.5416 28.6683 87.7609 28.2721 88.0528L27.2794 88.7979Z" fill="#F2F2F2"/>
<path d="M22.2097 118.928L21.9333 118.655L21.549 118.614C21.5509 118.578 21.5484 118.494 21.5455 118.362C21.5308 117.638 21.4849 115.436 21.7913 112.054C22.0052 109.692 22.3628 107.295 22.854 104.928C23.346 102.557 23.8566 100.793 24.2667 99.3751C24.5762 98.3057 24.8886 97.2913 25.1936 96.3033C26.0074 93.6636 26.7759 91.1701 27.2517 88.3259C27.3583 87.691 27.5795 86.3693 27.1266 84.8094C26.8639 83.9047 26.4141 83.0531 25.7892 82.2791L26.394 81.7904C27.0836 82.6457 27.581 83.5888 27.8728 84.5933C28.3748 86.3229 28.1339 87.763 28.0181 88.4549C27.5337 91.3494 26.7576 93.8668 25.9358 96.532C25.6324 97.5164 25.321 98.5263 25.0128 99.5914C24.6064 100.996 24.1004 102.745 23.6148 105.085C23.1291 107.424 22.7762 109.792 22.5646 112.124C22.2623 115.464 22.3077 117.633 22.3225 118.345C22.3302 118.726 22.3319 118.805 22.2097 118.928Z" fill="#F2F2F2"/>
<path d="M24.13 83.1741C24.0989 83.1671 24.0676 83.1594 24.0363 83.1501C23.3984 82.9712 22.8867 82.451 22.5151 81.6044C22.3411 81.2063 22.3 80.7874 22.2182 79.9518C22.2053 79.8229 22.1485 79.171 22.2183 78.3071C22.2637 77.7425 22.3244 77.5158 22.4779 77.3377C22.6485 77.1394 22.8782 77.0258 23.121 76.9688C23.1275 76.894 23.152 76.8209 23.2005 76.7517C23.4002 76.4642 23.7345 76.5823 23.9159 76.6438C24.0073 76.6766 24.1212 76.7184 24.2493 76.74C24.4506 76.7748 24.5708 76.7394 24.7527 76.6867C24.9268 76.6361 25.1433 76.5732 25.4426 76.5785C26.033 76.5867 26.4701 76.8522 26.6142 76.9395C27.3733 77.3959 27.6354 78.1239 27.9386 78.9669C27.9989 79.1359 28.1989 79.7467 28.2455 80.5331C28.2791 81.1006 28.2048 81.3328 28.1196 81.4989C27.9455 81.8403 27.679 81.9986 27.0176 82.3316C26.3266 82.6805 25.9799 82.8551 25.6956 82.9449C25.0341 83.1526 24.6187 83.2831 24.13 83.1741Z" fill="#F2F2F2"/>
<path d="M201.518 17.3526C201.518 17.3526 205.809 19.8706 204.402 22.3607C202.994 24.8508 201.032 28.2426 202.363 29.3108C203.694 30.379 205.892 35.0888 205.892 35.0888C205.892 35.0888 215.272 33.778 214.391 41.068C213.511 48.358 209.104 49.3519 212.881 52.559C216.658 55.7661 208.956 59.6017 208.956 59.6017C208.956 59.6017 203.638 57.9438 202.425 52.8456C201.212 47.7474 203.507 56.7438 202.737 57.3889C201.967 58.0339 198.979 62.2858 196.865 56.6327C194.751 50.9796 196.844 48.7878 194.051 45.4514C191.257 42.1149 189.357 36.7185 189.441 35.7751C189.524 34.8318 186.245 26.2238 191.292 22.8668C196.339 19.5097 201.518 17.3526 201.518 17.3526Z" fill="#2F2E41"/>
<path d="M243.787 96.4497C246.278 98.5128 249.362 98.8989 250.674 97.3122C251.986 95.7256 251.029 92.7675 248.537 90.704C247.552 89.866 246.382 89.2762 245.123 88.9837L234.456 80.3757L230.525 85.4701L241.458 93.4152C241.981 94.5982 242.779 95.6388 243.787 96.4497Z" fill="#FFB6B6"/>
<path d="M211.817 49.504C211.817 49.504 203.446 43.9028 200.705 46.6494C197.964 49.3959 198.618 56.2559 198.618 56.2559L220.571 81.8531L237.978 92.9235L242.645 85.6109L228.011 72.5454L211.817 49.504Z" fill="#3F3D56"/>
<path d="M199.547 37.3709L202.584 48.1724H185.914L191.403 34.8633L199.547 37.3709Z" fill="#FFB6B6"/>
<path opacity="0.1" d="M199.547 37.3709L202.584 48.1724H185.914L191.403 34.8633L199.547 37.3709Z" fill="black"/>
<path d="M163.192 117.122C162.977 120.35 164.468 123.078 166.521 123.215C168.575 123.352 170.414 120.846 170.628 117.616C170.732 116.327 170.525 115.032 170.026 113.839L170.765 100.148L164.336 99.9374L164.29 113.457C163.637 114.573 163.26 115.83 163.192 117.122Z" fill="#FFB6B6"/>
<path d="M182.551 63.7187C182.551 63.7187 182.195 53.6493 178.365 53.0311C174.535 52.413 169.357 56.9568 169.357 56.9568L161.446 89.7435L162.653 110.345L171.311 109.856L173.343 90.3374L182.551 63.7187Z" fill="#3F3D56"/>
<path d="M219.683 184.051C219.683 184.051 225.983 195.757 225.533 195.306C225.083 194.856 217.433 197.557 217.433 197.557L212.933 185.852L219.683 184.051Z" fill="#FFB6B6"/>
<path d="M228.981 102.115C228.981 102.115 232.206 115.012 231.881 114.465C231.555 113.918 223.476 114.651 223.476 114.651L221.996 102.198L228.981 102.115Z" fill="#FFB6B6"/>
<path d="M203.934 44.5707H188.206L171.086 56.2762L166.136 97.2452L168.836 105.349L173.786 114.803C173.786 114.803 168.836 94.0938 180.985 102.198C193.135 110.301 194.035 111.652 194.035 111.652L210.234 103.548L216.308 70.0076L211.808 51.549L203.934 44.5707Z" fill="#3F3D56"/>
<path d="M172.886 99.9465C187.122 101.947 199.981 100.203 210.458 91.9834C210.458 91.9834 218.108 117.645 204.159 120.347C190.21 123.048 174.686 118.405 172.886 113.903C171.086 109.401 172.886 99.9465 172.886 99.9465Z" fill="#2F2E41"/>
<path d="M199.434 108.05L214.958 144.658L222.158 186.978L212.708 189.229L195.806 150.286L172.886 113.003L199.434 108.05Z" fill="#2F2E41"/>
<path d="M201.459 97.611C201.459 97.611 205.059 69.698 211.808 67.8972C215.099 67.0193 218.175 67.1043 220.465 67.4221C222.772 67.7424 224.611 69.5061 225.015 71.8015L231.148 106.7H222.475L219.683 97.2452L212.258 110.217L201.459 97.611Z" fill="#2F2E41"/>
<path d="M223.508 111.117L232.084 110.217L233.407 115.169C233.407 115.169 247.356 127.775 240.157 128.675C232.957 129.576 226.208 124.624 226.208 124.624L216.304 118.939C216.304 118.939 220.133 108.726 222.833 108.726C225.533 108.726 223.508 111.117 223.508 111.117Z" fill="#2F2E41"/>
<path d="M219.008 195.532L227.584 194.631L228.907 199.583C228.907 199.583 242.857 212.189 235.657 213.09C228.457 213.99 221.708 209.038 221.708 209.038L211.804 203.354C211.804 203.354 212.483 192.69 215.183 192.69C217.883 192.69 219.008 195.532 219.008 195.532Z" fill="#2F2E41"/>
<path d="M195.586 39.7182C201.131 39.7182 205.625 35.2211 205.625 29.6737C205.625 24.1263 201.131 19.6293 195.586 19.6293C190.042 19.6293 185.547 24.1263 185.547 29.6737C185.547 35.2211 190.042 39.7182 195.586 39.7182Z" fill="#FFB6B6"/>
<path d="M199.434 18.4574C199.434 18.4574 201.108 23.1448 198.43 24.1492C195.753 25.1537 192.072 26.4929 192.407 28.167C192.742 29.8411 191.403 34.8633 191.403 34.8633C191.403 34.8633 199.434 39.8855 194.08 44.9078C188.726 49.93 184.71 47.8605 185.547 52.7456C186.383 57.6307 178.018 55.6219 178.018 55.6219C178.018 55.6219 175.006 50.9344 177.348 46.247C179.691 41.5596 175.675 49.93 174.671 49.93C173.667 49.93 168.648 51.2693 170.655 45.5774C172.663 39.8855 175.675 39.5507 175.675 35.1981C175.675 30.8455 177.683 25.4885 178.352 24.8189C179.021 24.1492 182.033 15.444 188.057 16.1137C194.08 16.7833 199.434 18.4574 199.434 18.4574Z" fill="#2F2E41"/>
<path d="M111.689 184.051C111.689 184.051 105.39 195.757 105.84 195.306C106.29 194.856 113.939 197.557 113.939 197.557L118.439 185.852L111.689 184.051Z" fill="#A0616A"/>
<path d="M158.487 99.9465C144.25 101.947 131.391 100.203 120.914 91.9834C120.914 91.9834 113.264 117.645 127.214 120.347C141.163 123.048 156.687 118.405 158.487 113.903C160.287 109.401 158.487 99.9465 158.487 99.9465Z" fill="#2F2E41"/>
<path d="M131.938 108.05L116.414 144.658L109.215 186.978L118.664 189.229L135.566 150.286L158.487 113.003L131.938 108.05Z" fill="#2F2E41"/>
<path d="M112.364 195.532L103.788 194.631L102.465 199.583C102.465 199.583 88.5158 212.189 95.7154 213.09C102.915 213.99 109.665 209.038 109.665 209.038L119.568 203.354C119.568 203.354 118.889 192.69 116.189 192.69C113.489 192.69 112.364 195.532 112.364 195.532Z" fill="#2F2E41"/>
<path d="M125.914 177.893C125.914 177.893 123.531 190.972 123.82 190.404C124.109 189.837 132.219 190.046 132.219 190.046L132.889 177.522L125.914 177.893Z" fill="#A0616A"/>
<path d="M121.741 99.3487L118.261 138.962L124.462 181.44L134.145 180.665L138.215 138.404L148.521 95.8648L121.741 99.3487Z" fill="#2F2E41"/>
<path d="M130.096 188.605L121.66 190.395L121.929 195.515C121.929 195.515 112.547 211.811 119.673 210.445C126.799 209.08 131.692 202.286 131.692 202.286L139.36 193.821C139.36 193.821 135.426 183.887 132.858 184.721C130.29 185.554 130.096 188.605 130.096 188.605Z" fill="#2F2E41"/>
<path d="M129.855 17.3526C129.855 17.3526 125.563 19.8706 126.971 22.3607C128.378 24.8508 130.34 28.2426 129.009 29.3108C127.678 30.379 125.48 35.0888 125.48 35.0888C125.48 35.0888 116.101 33.778 116.981 41.068C117.862 48.358 122.268 49.3519 118.491 52.559C114.715 55.7661 122.417 59.6017 122.417 59.6017C122.417 59.6017 127.734 57.9438 128.947 52.8456C130.16 47.7474 127.866 56.7438 128.635 57.3889C129.405 58.0339 132.393 62.2858 134.507 56.6327C136.622 50.9796 134.528 48.7878 137.322 45.4514C140.115 42.1149 142.015 36.7185 141.932 35.7751C141.848 34.8318 145.127 26.2238 140.08 22.8668C135.033 19.5097 129.855 17.3526 129.855 17.3526Z" fill="#2F2E41"/>
<path d="M131.826 37.3709L128.788 48.1724H145.459L139.969 34.8633L131.826 37.3709Z" fill="#A0616A"/>
<path opacity="0.1" d="M131.826 37.3709L128.788 48.1724H145.459L139.969 34.8633L131.826 37.3709Z" fill="black"/>
<path d="M168.18 117.122C168.395 120.35 166.905 123.078 164.851 123.215C162.798 123.352 160.959 120.846 160.744 117.616C160.641 116.327 160.847 115.032 161.346 113.839L160.607 100.148L167.036 99.9374L167.082 113.457C167.736 114.573 168.112 115.83 168.18 117.122Z" fill="#A0616A"/>
<path d="M148.822 63.7187C148.822 63.7187 149.177 53.6493 153.007 53.0311C156.837 52.413 162.015 56.9568 162.015 56.9568L169.926 89.7435L168.719 110.345L160.061 109.856L158.029 90.3374L148.822 63.7187Z" fill="#DE2D59"/>
<path d="M127.439 44.5707H143.166L160.287 56.2762L165.236 97.2452L162.536 105.349L157.587 114.803C157.587 114.803 162.536 94.0938 150.387 102.198C150.266 102.279 150.145 102.359 150.026 102.439C142.205 107.665 131.886 107.128 124.646 101.122L118.889 96.3448L122.039 80.5875L119.564 51.549L127.439 44.5707Z" fill="#DE2D59"/>
<path d="M88.0835 95.8629C85.561 97.8879 82.472 98.227 81.1842 96.6206C79.8964 95.0142 80.8976 92.071 83.4213 90.0456C84.4183 89.2227 85.5978 88.6507 86.8611 88.3774L97.6575 79.9326L101.51 85.0862L90.458 92.8641C89.9172 94.0391 89.103 95.0674 88.0835 95.8629Z" fill="#A0616A"/>
<path d="M120.762 49.4088C120.762 49.4088 129.217 43.9355 131.917 46.7234C134.616 49.5113 133.857 56.3606 133.857 56.3606L111.519 81.621L93.9454 92.4255L89.3894 85.0427L104.221 72.2013L120.762 49.4088Z" fill="#DE2D59"/>
<path d="M135.786 39.7182C141.331 39.7182 145.826 35.2211 145.826 29.6737C145.826 24.1263 141.331 19.6293 135.786 19.6293C130.242 19.6293 125.747 24.1263 125.747 29.6737C125.747 35.2211 130.242 39.7182 135.786 39.7182Z" fill="#A0616A"/>
<path d="M130.789 22.941C130.789 22.941 129.31 18.0084 131.775 18.0084C134.24 18.0084 144.1 18.5016 145.086 19.4881C146.072 20.4747 157.739 30.3756 150.837 38.2678C143.935 46.16 150.837 49.9732 150.837 49.9732C150.837 49.9732 155.932 61.9086 151.002 62.8951C146.072 63.8817 125.849 58.2407 130.789 49.0838C136.149 39.1467 138.643 23.4624 130.789 22.941Z" fill="#2F2E41"/>
<path d="M295.065 96.2708C294.905 95.7829 293.697 95.9977 293.581 95.5612C293.466 95.1264 294.625 94.7617 295.514 93.5362C295.674 93.3152 296.684 91.9225 296.297 91.3367C295.562 90.2263 290.453 92.9917 289.226 91.4399C288.957 91.0993 288.846 90.5147 288.044 89.4266C287.725 88.9937 287.52 88.7847 287.276 88.7909C286.929 88.7997 286.805 89.234 286.259 90.0207C285.441 91.2006 285.146 91.0525 284.608 92.0192C284.208 92.7368 284.16 93.1954 283.872 93.2224C283.464 93.2606 283.295 92.3672 282.796 92.3325C282.287 92.2971 281.778 93.18 281.526 93.8698C281.052 95.1642 281.345 96.1535 281.41 97.1395C281.481 98.211 281.315 99.7796 280.151 101.793L269.176 119.289C271.533 115.722 278.224 105.996 280.92 102.428C281.698 101.399 282.534 100.364 283.821 100.17C285.061 99.9825 286.568 100.596 288.673 100.56C288.919 100.556 289.603 100.536 289.769 100.173C289.907 99.8731 289.565 99.6124 289.69 99.3305C289.856 98.9523 290.606 99.1146 291.628 98.8634C292.349 98.6863 292.838 98.3937 293.259 98.1421C293.386 98.0663 295.277 96.9204 295.065 96.2708Z" fill="#F2F2F2"/>
<path d="M266.317 100.356C266.032 100.293 265.789 100.948 265.541 100.879C265.295 100.811 265.45 100.136 265.106 99.3461C265.043 99.2036 264.652 98.3056 264.253 98.3269C263.496 98.3672 263.378 101.674 262.263 101.829C262.018 101.863 261.7 101.749 260.934 101.828C260.63 101.86 260.468 101.9 260.401 102.022C260.305 102.195 260.482 102.381 260.711 102.876C261.054 103.618 260.896 103.721 261.215 104.264C261.451 104.667 261.663 104.823 261.593 104.972C261.494 105.184 261.007 105.009 260.846 105.244C260.682 105.484 260.968 105.988 261.233 106.311C261.732 106.918 262.301 107.059 262.804 107.311C263.35 107.586 264.072 108.12 264.723 109.272L270.139 119.71C269.07 117.524 266.229 111.432 265.257 109.078C264.976 108.399 264.71 107.69 264.986 107.002C265.252 106.339 265.988 105.776 266.578 104.732C266.646 104.61 266.834 104.268 266.704 104.082C266.596 103.928 266.37 104.02 266.268 103.878C266.13 103.687 266.426 103.366 266.598 102.791C266.719 102.386 266.716 102.062 266.715 101.782C266.714 101.698 266.697 100.439 266.317 100.356Z" fill="#F2F2F2"/>
<path d="M271.721 102.902L271.891 101.33L271.995 101.231C272.478 100.774 272.78 100.29 272.894 99.7924C272.912 99.7132 272.926 99.6331 272.94 99.5516C272.997 99.2282 273.067 98.8263 273.378 98.4088C273.551 98.1762 274.011 97.6505 274.486 97.8341C274.614 97.8822 274.7 97.9652 274.76 98.0533C274.775 98.038 274.791 98.0227 274.807 98.0062C275.012 97.807 275.156 97.734 275.294 97.6637C275.4 97.6096 275.509 97.554 275.695 97.4056C275.776 97.3405 275.841 97.282 275.896 97.2328C276.062 97.0841 276.275 96.91 276.567 96.9789C276.876 97.0635 276.982 97.3585 277.052 97.5539C277.178 97.9023 277.217 98.1419 277.242 98.3008C277.252 98.3588 277.262 98.4242 277.27 98.4454C277.338 98.6161 278.187 98.6602 278.507 98.6786C279.225 98.7176 279.847 98.7514 279.997 99.2436C280.104 99.5957 279.88 99.9797 279.313 100.415C279.136 100.551 278.96 100.644 278.806 100.714C278.9 100.804 278.976 100.926 278.98 101.092C278.991 101.484 278.588 101.786 277.784 101.989C277.584 102.04 277.315 102.107 276.963 102.09C276.798 102.082 276.653 102.057 276.529 102.033C276.51 102.103 276.477 102.177 276.416 102.246C276.237 102.451 275.948 102.504 275.555 102.388C275.122 102.267 274.78 102.103 274.478 101.959C274.214 101.833 273.986 101.725 273.795 101.696C273.44 101.646 273.109 101.866 272.713 102.157L271.721 102.902Z" fill="#F2F2F2"/>
<path d="M274.554 93.9457L272.99 94.1798L272.868 94.1038C272.304 93.7522 271.76 93.5824 271.249 93.5991C271.168 93.6017 271.087 93.6085 271.005 93.6153C270.678 93.6426 270.271 93.6767 269.789 93.4819C269.52 93.3726 268.895 93.0608 268.952 92.5551C268.966 92.419 269.025 92.3143 269.095 92.2339C269.076 92.2232 269.057 92.2121 269.037 92.2003C268.793 92.0525 268.686 91.9323 268.583 91.8165C268.503 91.7275 268.422 91.6356 268.231 91.4938C268.148 91.4316 268.075 91.3834 268.013 91.3428C267.827 91.2194 267.605 91.0575 267.598 90.7578C267.601 90.4371 267.859 90.2597 268.03 90.1421C268.335 89.9322 268.557 89.834 268.704 89.7689C268.758 89.7452 268.819 89.7183 268.837 89.7051C268.985 89.5963 268.812 88.7631 268.749 88.4491C268.604 87.7439 268.479 87.1337 268.917 86.8642C269.23 86.6711 269.658 86.79 270.223 87.2286C270.399 87.3653 270.535 87.5125 270.641 87.6438C270.704 87.5294 270.802 87.4255 270.962 87.379C271.339 87.2693 271.732 87.5825 272.132 88.3093C272.232 88.4898 272.366 88.7329 272.439 89.0776C272.473 89.2401 272.485 89.3869 272.493 89.5127C272.566 89.5127 272.646 89.5268 272.729 89.5682C272.972 89.6894 273.096 89.956 273.084 90.3651C273.077 90.815 273.005 91.1879 272.942 91.5168C272.887 91.804 272.841 92.0515 272.861 92.2436C272.903 92.5998 273.199 92.8646 273.582 93.1739L274.554 93.9457Z" fill="#F2F2F2"/>
<path d="M274.764 89.2481L274.935 87.6755L275.039 87.5768C275.522 87.12 275.824 86.6361 275.938 86.138C275.956 86.0588 275.97 85.9787 275.984 85.8971C276.04 85.5738 276.111 85.1719 276.421 84.7544C276.595 84.5218 277.055 83.9961 277.53 84.1797C277.658 84.2277 277.744 84.3108 277.804 84.3988C277.819 84.3835 277.835 84.3683 277.851 84.3518C278.056 84.1526 278.199 84.0796 278.337 84.0093C278.444 83.9552 278.553 83.8996 278.738 83.7512C278.82 83.6861 278.885 83.6276 278.94 83.5784C279.106 83.4297 279.319 83.2555 279.611 83.3245C279.92 83.4091 280.026 83.7041 280.096 83.8994C280.222 84.2479 280.261 84.4874 280.286 84.6464C280.295 84.7044 280.306 84.7698 280.314 84.791C280.382 84.9617 281.231 85.0058 281.551 85.0242C282.269 85.0632 282.891 85.097 283.04 85.5892C283.148 85.9413 282.924 86.3253 282.357 86.7609C282.18 86.8965 282.003 86.99 281.849 87.0599C281.944 87.1494 282.02 87.2713 282.024 87.4372C282.035 87.8298 281.632 88.1312 280.828 88.3343C280.628 88.3854 280.359 88.4529 280.007 88.4358C279.842 88.4276 279.696 88.4023 279.573 88.3785C279.554 88.4491 279.52 88.5224 279.459 88.592C279.28 88.797 278.991 88.8491 278.599 88.7336C278.166 88.6128 277.824 88.4485 277.521 88.3042C277.258 88.1784 277.03 88.0709 276.839 88.0415C276.484 87.9918 276.153 88.2111 275.757 88.503L274.764 89.2481Z" fill="#F2F2F2"/>
<path d="M269.695 119.378L269.418 119.105L269.034 119.064C269.036 119.028 269.033 118.944 269.031 118.812C269.016 118.088 268.97 115.887 269.276 112.504C269.49 110.142 269.848 107.745 270.339 105.378C270.831 103.007 271.342 101.243 271.752 99.8253C272.061 98.7559 272.374 97.7415 272.679 96.7535C273.492 94.1138 274.261 91.6203 274.737 88.7761C274.843 88.1412 275.064 86.8195 274.612 85.2596C274.349 84.3549 273.899 83.5033 273.274 82.7293L273.879 82.2406C274.569 83.0959 275.066 84.039 275.358 85.0435C275.86 86.7731 275.619 88.2132 275.503 88.9051C275.019 91.7996 274.243 94.317 273.421 96.9822C273.117 97.9666 272.806 98.9765 272.498 100.042C272.091 101.446 271.585 103.195 271.1 105.536C270.614 107.874 270.261 110.242 270.05 112.574C269.747 115.914 269.793 118.083 269.808 118.795C269.815 119.176 269.817 119.255 269.695 119.378Z" fill="#F2F2F2"/>
<path d="M271.615 83.6243C271.584 83.6173 271.553 83.6096 271.521 83.6003C270.883 83.4214 270.372 82.9012 270 82.0546C269.826 81.6565 269.785 81.2376 269.703 80.402C269.69 80.2731 269.634 79.6212 269.703 78.7573C269.749 78.1927 269.809 77.966 269.963 77.7879C270.133 77.5896 270.363 77.476 270.606 77.419C270.613 77.3442 270.637 77.2711 270.685 77.2018C270.885 76.9144 271.219 77.0325 271.401 77.094C271.492 77.1268 271.606 77.1686 271.734 77.1901C271.936 77.225 272.056 77.1896 272.238 77.1369C272.412 77.0863 272.628 77.0234 272.928 77.0287C273.518 77.0368 273.955 77.3024 274.099 77.3897C274.858 77.8461 275.12 78.5741 275.424 79.4171C275.484 79.5861 275.684 80.1968 275.73 80.9833C275.764 81.5508 275.69 81.783 275.605 81.9491C275.431 82.2905 275.164 82.4488 274.503 82.7818C273.812 83.1307 273.465 83.3053 273.181 83.3951C272.519 83.6028 272.104 83.7333 271.615 83.6243Z" fill="#F2F2F2"/>
<path d="M75.7173 92.1544L75.2096 76.1302C75.2013 75.8701 75.3035 75.6169 75.49 75.4354C75.6766 75.2539 75.9325 75.1587 76.1924 75.1743L88.9014 75.937C89.1582 75.9522 89.3991 76.0751 89.5624 76.2739C89.7258 76.4725 89.7997 76.7327 89.7653 76.9876L87.6153 92.9143C87.5503 93.3962 87.1196 93.7485 86.6347 93.7163L76.5833 93.0512C76.4813 93.0445 76.3842 93.0217 76.2943 92.9853C75.9623 92.851 75.7292 92.5318 75.7173 92.1544Z" fill="#DE2D59"/>
<path d="M75.2254 74.6312C75.4032 74.6125 75.6414 74.5894 75.9273 74.5654C75.8509 74.423 75.8196 74.2546 75.8523 74.0817L76.0792 72.8814C76.1382 72.5699 76.389 72.3311 76.7031 72.2891C78.5744 72.0387 85.0108 71.3595 89.0637 73.1991C89.3172 73.3143 89.4804 73.567 89.4884 73.8455L89.5255 75.126C89.5301 75.2843 89.4841 75.4311 89.4035 75.5527C89.7405 75.6434 90.0763 75.7392 90.4094 75.8437C90.6182 75.9092 90.7676 76.0936 90.7927 76.311L90.8557 76.8565C90.8956 77.2026 90.612 77.5001 90.2646 77.4767L75.0707 76.45C74.7249 76.4267 74.4841 76.0965 74.5673 75.7599L74.7424 75.0518C74.7988 74.8237 74.9918 74.6558 75.2254 74.6312Z" fill="#3F3D56"/>
<path d="M37.4696 46.6833L36.9619 30.6591C36.9536 30.399 37.0558 30.1457 37.2423 29.9643C37.4289 29.7828 37.6849 29.6876 37.9447 29.7032L50.6538 30.4658C50.9105 30.4811 51.1514 30.6039 51.3147 30.8027C51.4781 31.0014 51.552 31.2616 51.5176 31.5165L49.3676 47.4432C49.3026 47.9251 48.8719 48.2773 48.387 48.2451L38.3356 47.5801C38.2336 47.5733 38.1365 47.5506 38.0466 47.5142C37.7146 47.3799 37.4816 47.0606 37.4696 46.6833Z" fill="#DE2D59"/>
<path d="M36.9777 29.1601C37.1555 29.1413 37.3937 29.1183 37.6796 29.0943C37.6032 28.9518 37.5719 28.7834 37.6046 28.6106L37.8316 27.4103C37.8905 27.0988 38.1413 26.86 38.4554 26.8179C40.3267 26.5676 46.7631 25.8883 50.816 27.728C51.0696 27.8431 51.2327 28.0959 51.2408 28.3743L51.2778 29.6548C51.2824 29.8132 51.2364 29.9599 51.1558 30.0816C51.4928 30.1722 51.8286 30.2681 52.1617 30.3726C52.3705 30.4381 52.5199 30.6224 52.545 30.8399L52.608 31.3853C52.6479 31.7315 52.3644 32.029 52.0169 32.0055L36.823 30.9789C36.4772 30.9555 36.2364 30.6254 36.3196 30.2888L36.4947 29.5807C36.5511 29.3526 36.7441 29.1847 36.9777 29.1601Z" fill="#3F3D56"/>
<path d="M236.807 96.2063L236.3 80.1821C236.292 79.922 236.394 79.6688 236.58 79.4873C236.767 79.3058 237.023 79.2106 237.283 79.2262L249.992 79.9888C250.248 80.0041 250.489 80.127 250.653 80.3257C250.816 80.5244 250.89 80.7846 250.856 81.0395L248.706 96.9662C248.64 97.4481 248.21 97.8003 247.725 97.7681L237.674 97.1031C237.572 97.0963 237.474 97.0736 237.384 97.0372C237.053 96.9029 236.819 96.5836 236.807 96.2063Z" fill="#DE2D59"/>
<path d="M236.316 78.6831C236.493 78.6643 236.732 78.6413 237.018 78.6173C236.941 78.4749 236.91 78.3064 236.943 78.1336L237.169 76.9333C237.228 76.6218 237.479 76.383 237.793 76.3409C239.665 76.0906 246.101 75.4113 250.154 77.251C250.407 77.3661 250.571 77.6189 250.579 77.8973L250.616 79.1779C250.62 79.3362 250.574 79.4829 250.494 79.6046C250.831 79.6952 251.166 79.7911 251.5 79.8956C251.708 79.9611 251.858 80.1455 251.883 80.3629L251.946 80.9083C251.986 81.2545 251.702 81.552 251.355 81.5285L236.161 80.5019C235.815 80.4785 235.574 80.1484 235.658 79.8118L235.833 79.1037C235.889 78.8756 236.082 78.7077 236.316 78.6831Z" fill="#3F3D56"/>
</g>
<defs>
<clipPath id="clip0_523_1496">
<rect width="297" height="215" fill="white" transform="translate(0.5)"/>
</clipPath>
</defs>
</svg>
